#!OML:ASF H:\charlestonDancing\Project 1\Capture day 1\Session 1\femaleDancer.ASF
:FULLY-SPECIFIED
:DEGREES
238
root 1.10576 17.8836 -1.44332 -139.885 -95.1572 142.989
lowerback 19.7128 1.50685 4.37847
upperback 5.81554 2.54556 1.67759
thorax -4.60063 1.07932 -1.26882
lowerneck 1.83846 -2.29692 1.65133
upperneck 3.90203 -3.04481 -1.05171
head 0.845385 -1.51905 -0.597301
rclavicle -6.55989e-015 1.03368e-014
rhumerus -34.9754 7.25743 -79.83
rradius 66.7473
rwrist 15.3376
rhand -41.3306 -44.9587
rfingers 7.12502
rthumb -14.2502 -74.4498
lclavicle -6.55989e-015 1.03368e-014
lhumerus -45.0273 23.5786 12.2243
lradius 152.042
lwrist 4.88211
lhand -4.01413 7.97304
lfingers 7.12502
lthumb 21.7404 36.7722
rfemur -44.3837 7.39836 14.8266
rtibia 42.2779
rfoot -31.337 -1.67127
rtoes -21.75
lfemur -18.6623 -4.47913 -24.8381
ltibia 38.6068
lfoot -7.05476 -10.9111
ltoes -6.20421
239
root 1.04717 17.8002 -1.4679 -142.797 -96.0262 145.895
lowerback 19.5062 1.53872 4.50296
upperback 5.61373 2.6364 1.85124
thorax -4.70798 1.12531 -1.17239
lowerneck 2.0196 -2.66487 1.67903
upperneck 3.91963 -3.54067 -0.735224
head 0.818894 -1.76323 -0.502174
rclavicle 0 -7.95139e-016
rhumerus -35.2476 7.32675 -79.3582
rradius 67.6738
rwrist 15.1769
rhand -41.3464 -44.2606
rfingers 7.12502
rthumb -14.2654 -73.7506
lclavicle 0 -7.95139e-016
lhumerus -44.1784 23.2003 11.1595
lradius 151.785
lwrist 6.10367
lhand -4.07467 8.0277
lfingers 7.12502
lthumb 21.6823 36.8336
rfemur -43.2733 8.17149 14.0844
rtibia 36.7447
rfoot -28.607 -1.95094
rtoes -24.0982
lfemur -18.4034 -4.96651 -24.5368
ltibia 38.7107
lfoot -8.76167 -11.747
ltoes -3.03933
240
root 0.995214 17.7112 -1.49297 -146.503 -96.8046 149.331
lowerback 19.6139 1.61027 4.47636
upperback 5.41909 2.7627 2.00459
thorax -4.97758 1.18323 -1.02986
lowerneck 2.02679 -3.03705 1.66468
upperneck 4.24692 -4.04755 -0.481154
head 0.918091 -2.01379 -0.426473
rclavicle 4.17448e-015 1.78906e-014
rhumerus -35.647 7.2105 -78.7743
rradius 68.5093
rwrist 15.2147
rhand -41.2014 -44.5037
rfingers 7.12502
rthumb -14.1257 -74.0035
lclavicle 4.17448e-015 1.78906e-014
lhumerus -43.2168 22.7939 10.3838
lradius 151.533
lwrist 7.2325
lhand -3.91437 8.20723
lfingers 7.12502
lthumb 21.8362 36.9952
rfemur -42.1998 8.23407 13.7206
rtibia 33.2342
rfoot -25.8563 -1.08844
rtoes -24.584
lfemur -17.9328 -5.38691 -24.4918
ltibia 38.9141
lfoot -10.2929 -12.4249
ltoes -0.671728
241
root 0.93948 17.625 -1.51556 -153.029 -97.4529 155.323
lowerback 19.8846 1.72231 4.13405
upperback 5.37112 2.86757 2.04375
thorax -5.18759 1.23277 -0.829079
lowerneck 1.97843 -3.35949 1.69601
upperneck 4.64511 -4.48761 -0.344245
head 1.04767 -2.2307 -0.396961
rclavicle 5.28767e-014 1.19271e-014
rhumerus -36.0529 6.7096 -78.125
rradius 69.1967
rwrist 15.545
rhand -41.016 -44.5727
rfingers 7.12502
rthumb -13.9471 -74.0849
lclavicle 5.28767e-014 1.19271e-014
lhumerus -42.1843 22.4842 10.0593
lradius 151.246
lwrist 7.80489
lhand -3.90407 8.5004
lfingers 7.12502
lthumb 21.8461 37.2872
rfemur -41.1106 7.13883 13.7207
rtibia 32.214
rfoot -23.8063 -0.442623
rtoes -24.485
lfemur -17.2047 -5.93787 -24.9893
ltibia 39.3124
lfoot -11.2267 -12.9591
ltoes 0.973692
242
root 0.874568 17.549 -1.53451 -163.452 -98.0999 164.769
lowerback 20.5099 1.74088 3.37337
upperback 5.56716 2.74235 1.88717
thorax -5.33946 1.17047 -0.553035
lowerneck 1.99711 -3.57089 1.54958
upperneck 4.83216 -4.78187 -0.0985364
head 1.1093 -2.37661 -0.301327
rclavicle -2.00773e-014 -1.03368e-014
rhumerus -36.2543 6.13803 -77.5807
rradius 69.5788
rwrist 16.1269
rhand -40.9193 -44.5843
rfingers 7.12502
rthumb -13.8538 -74.1029
lclavicle -2.00773e-014 -1.03368e-014
lhumerus -41.458 22.3875 9.87417
lradius 150.947
lwrist 8.06331
lhand -4.01185 8.73145
lfingers 7.12502
lthumb 21.7426 37.5303
rfemur -39.6848 4.99082 13.625
rtibia 33.0998
rfoot -22.5534 0.495963
rtoes -25.6334
lfemur -16.0178 -6.63702 -26.2003
ltibia 39.8762
lfoot -11.6496 -13.3879
ltoes 1.77948
243
root 0.807644 17.4928 -1.58252 -170.557 -98.4574 171.723
lowerback 20.6698 1.85634 2.34676
upperback 5.53831 2.68811 1.72121
thorax -5.49958 1.15166 -0.142311
lowerneck 2.06256 -3.62422 1.2429
upperneck 4.9161 -4.86856 0.2293
head 1.13944 -2.42118 -0.152091
rclavicle -2.16675e-014 -3.10104e-014
rhumerus -36.2851 5.80102 -77.2761
rradius 69.5951
rwrist 17.0589
rhand -40.9883 -44.6557
rfingers 7.12502
rthumb -13.9203 -74.1698
lclavicle -2.16675e-014 -3.10104e-014
lhumerus -41.3362 22.3865 9.67457
lradius 150.698
lwrist 8.21244
lhand -4.01646 8.7553
lfingers 7.12502
lthumb 21.7382 37.5547
rfemur -39.2758 3.46923 13.601
rtibia 35.4455
rfoot -21.5742 0.0980388
rtoes -30.5106
lfemur -15.9245 -6.90032 -27.0005
ltibia 40.3884
lfoot -11.3774 -13.949
ltoes 3.03119
244
root 0.729689 17.4831 -1.63182 -169.944 -98.5987 171.552
lowerback 20.297 1.93576 2.25124
upperback 5.33015 2.7883 1.75321
thorax -5.53523 1.20819 -0.0716828
lowerneck 2.18793 -3.56698 0.98506
upperneck 5.04695 -4.8044 0.428849
head 1.1709 -2.39175 -0.0487342
rclavicle -3.79679e-014 -1.74931e-014
rhumerus -36.2245 5.51425 -77.1285
rradius 69.3229
rwrist 17.8157
rhand -41.03 -44.1389
rfingers 7.12502
rthumb -13.9606 -73.6502
lclavicle -3.79679e-014 -1.74931e-014
lhumerus -41.6906 22.3218 9.85577
lradius 150.54
lwrist 7.96991
lhand -3.86564 8.4804
lfingers 7.12502
lthumb 21.883 37.2629
rfemur -39.5386 2.68184 14.5611
rtibia 38.3873
rfoot -20.6395 0.690702
rtoes -28.9368
lfemur -16.3901 -6.33135 -26.5559
ltibia 40.548
lfoot -10.5177 -15.0068
ltoes 5.16909
245
root 0.625065 17.499 -1.66442 -172.714 -98.7461 174.155
lowerback 20.2303 2.00073 1.99957
upperback 5.33459 2.81677 1.64439
thorax -5.50254 1.22633 -0.0505498
lowerneck 2.36401 -3.52046 0.875344
upperneck 5.33675 -4.75371 0.529236
head 1.23751 -2.36806 -0.000410114
rclavicle 1.09332e-014 -8.74653e-015
rhumerus -36.1804 5.08643 -77.0892
rradius 68.8335
rwrist 17.7615
rhand -40.9845 -43.536
rfingers 7.12502
rthumb -13.9167 -73.0503
lclavicle 1.09332e-014 -8.74653e-015
lhumerus -42.1712 22.1352 10.6382
lradius 150.374
lwrist 7.27323
lhand -3.64359 7.73272
lfingers 7.12502
lthumb 22.0962 36.4902
rfemur -38.7744 1.64184 15.1346
rtibia 41.5236
rfoot -19.4541 2.03598
rtoes -24.6308
lfemur -15.728 -5.63339 -26.7178
ltibia 40.3638
lfoot -9.71177 -16.0522
ltoes 7.21261
246
root 0.511951 17.5643 -1.68292 -174.712 -98.8764 176.011
lowerback 20.0338 2.00226 2.03023
upperback 5.30109 2.81485 1.44898
thorax -5.42404 1.22973 -0.270831
lowerneck 2.58339 -3.46149 1.00017
upperneck 5.82168 -4.68748 0.571352
head 1.35141 -2.33342 -0.00928628
rclavicle 2.42517e-014 3.18055e-015
rhumerus -36.2443 4.67362 -77.2989
rradius 68.0542
rwrist 17.4534
rhand -40.9433 -43.4108
rfingers 7.12502
rthumb -13.877 -72.9279
lclavicle 2.42517e-014 3.18055e-015
lhumerus -42.8243 21.8305 11.6738
lradius 150.205
lwrist 6.3335
lhand -3.36649 6.7692
lfingers 7.12502
lthumb 22.3622 35.495
rfemur -37.6943 0.578179 15.7922
rtibia 44.3682
rfoot -18.1804 3.03329
rtoes -24.1267
lfemur -14.8528 -4.80252 -26.785
ltibia 39.9126
lfoot -8.83249 -16.9701
ltoes 8.49141
247
root 0.418801 17.6408 -1.71569 -169.966 -98.6836 171.699
lowerback 19.5786 1.9936 2.69549
upperback 4.97258 2.95411 1.46306
thorax -5.50159 1.29913 -0.656727
lowerneck 2.69742 -3.27101 1.06341
upperneck 6.56584 -4.45952 0.659792
head 1.56924 -2.21819 0.00156823
rclavicle -5.96354e-015 -7.95139e-016
rhumerus -36.3952 4.6188 -77.7373
rradius 67.0474
rwrist 17.3139
rhand -41.0295 -43.3761
rfingers 7.12502
rthumb -13.9601 -72.8875
lclavicle -5.96354e-015 -7.95139e-016
lhumerus -43.9926 21.4975 12.5761
lradius 150.092
lwrist 5.49518
lhand -2.7795 5.71473
lfingers 7.12502
lthumb 22.9256 34.3717
rfemur -37.4084 0.430042 17.4351
rtibia 46.9473
rfoot -16.6491 3.56291
rtoes -22.6986
lfemur -14.7956 -3.73535 -25.7201
ltibia 39.2814
lfoot -8.04302 -17.3482
ltoes 7.1706
248
root 0.340161 17.7166 -1.76276 -160.748 -98.3251 163.326
lowerback 19.0327 2.03958 3.57645
upperback 4.43593 3.22462 1.64624
thorax -5.74288 1.42574 -1.01351
lowerneck 2.54491 -2.98228 0.867585
upperneck 7.51176 -4.12359 0.900904
head 1.90995 -2.05105 0.0971533
rclavicle 5.96354e-016 3.97569e-016
rhumerus -36.6672 4.83216 -78.2491
rradius 65.994
rwrist 17.3586
rhand -41.2531 -43.0252
rfingers 7.12502
rthumb -14.1755 -72.5216
lclavicle 5.96354e-016 3.97569e-016
lhumerus -45.6092 21.1992 13.3636
lradius 149.932
lwrist 4.83885
lhand -2.12061 4.56897
lfingers 7.12502
lthumb 23.5577 33.1462
rfemur -37.6052 1.04273 19.6238
rtibia 49.0242
rfoot -15.6736 3.44677
rtoes -22.8046
lfemur -15.2853 -2.5353 -24.0649
ltibia 38.4088
lfoot -7.34851 -17.1206
ltoes 3.62573
249
root 0.225208 17.7955 -1.78729 -160.054 -98.1848 163.429
lowerback 18.184 2.01586 3.63147
upperback 4.02876 3.20446 1.5223
thorax -5.71932 1.42643 -1.14905
lowerneck 2.25508 -2.76769 0.666081
upperneck 8.41371 -3.88679 1.10795
head 2.26445 -1.93309 0.184194
rclavicle 5.96354e-015 -4.77083e-015
rhumerus -37.1449 4.89137 -78.645
rradius 64.959
rwrist 17.7342
rhand -41.3498 -42.7781
rfingers 7.12502
rthumb -14.2687 -72.2678
lclavicle 5.96354e-015 -4.77083e-015
lhumerus -47.2829 20.9483 14.2217
lradius 149.661
lwrist 4.37358
lhand -2.03796 3.55198
lfingers 7.12502
lthumb 23.637 32.119
rfemur -37.2414 0.764736 20.458
rtibia 50.4541
rfoot -14.8815 3.81521
rtoes -22.764
lfemur -15.4493 -1.85793 -23.8772
ltibia 37.7473
lfoot -6.73627 -16.9827
ltoes 0.979913
250
root 0.0607365 17.891 -1.77637 -169.168 -98.4219 172.988
lowerback 17.0838 1.87043 3.02608
upperback 3.91422 2.85743 1.03448
thorax -5.27287 1.28449 -1.21249
lowerneck 1.87589 -2.66653 0.557821
upperneck 9.22987 -3.79317 1.22271
head 2.6083 -1.88454 0.22684
rclavicle 3.18055e-015 -7.95139e-016
rhumerus -37.7756 4.57675 -78.8613
rradius 63.9774
rwrist 18.4092
rhand -40.9577 -42.2049
rfingers 7.12502
rthumb -13.8908 -71.721
lclavicle 3.18055e-015 -7.95139e-016
lhumerus -48.8046 20.7881 15.0672
lradius 149.293
lwrist 4.05255
lhand -2.397 2.39926
lfingers 7.12502
lthumb 23.2926 31.0103
rfemur -36.0137 -0.771913 19.8083
rtibia 51.2366
rfoot -13.8703 5.05029
rtoes -22.3106
lfemur -14.7726 -1.69216 -25.2003
ltibia 37.1052
lfoot -5.97612 -17.2173
ltoes -0.587236
